/* XPM */
static char * close_prelight_xpm[] = {
"24 26 25 1",
" 	c None",
".	c #404040",
"+	c #3F3F3F",
"@	c #3E3E3E",
"#	c #535353",
"$	c #707070",
"%	c #7A7A7A",
"&	c #6F6F6F",
"*	c #484848",
"=	c #7B7B7B",
"-	c #8A8A8A",
";	c #8C8C8C",
">	c #828282",
",	c #818181",
"'	c #888888",
")	c #4A4A4A",
"!	c #515151",
"~	c #868686",
"{	c #545454",
"]	c #454545",
"^	c #505050",
"/	c #858585",
"(	c #3D3D3D",
"_	c #474747",
":	c #3C3C3C",
"........................",
"........................",
"........................",
"++++++++++++++++++++++++",
"++++++++++++++++++++++++",
"++++++++++++++++++++++++",
"++++++++++++++++++++++++",
"@@@@@@@@.#$%%&#.@@@@@@@@",
"@@@@@@@*=-;;;;-%*@@@@@@@",
"@@@@@@*>;;;;;;;;,*@@@@@@",
"@@@@@.=;;'-;;-';;%.@@@@@",
"@@@@@#-;')!~~!)';-{@@@@@",
"@@@@@$;;-!]!!]!-;;&@@@@@",
"@@@@@=;;;~!]]^/;;;=@@@@@",
"@@@@@=;;;~!]]^/;;;%@@@@@",
"((((($;;-!]!!]!-;;&(((((",
"(((((#-;')!~~!)';-#(((((",
"(((((+%;;'-;;-';;%@(((((",
"((((((*,;;;;;;;;,_((((((",
"(((((((*%-;;;;-%_(((((((",
"((((((((+#&==&#@((((((((",
"((((((((((((((((((((((((",
"((((((((((((((((((((((((",
"::::::::::::::::::::::::",
"::::::::::::::::::::::::",
"::::::::::::::::::::::::"};
