/* XPM */
static char * close_pressed_xpm[] = {
"24 26 28 1",
" 	c None",
".	c #3E3E3E",
"+	c #3D3D3D",
"@	c #3C3C3C",
"#	c #505050",
"$	c #646464",
"%	c #6E6E6E",
"&	c #636363",
"*	c #474747",
"=	c #6D6D6D",
"-	c #717171",
";	c #3B3B3B",
">	c #464646",
",	c #707070",
"'	c #6F6F6F",
")	c #3A3A3A",
"!	c #414141",
"~	c #6C6C6C",
"{	c #363636",
"]	c #404040",
"^	c #6B6B6B",
"/	c #393939",
"(	c #4F4F4F",
"_	c #383838",
":	c #454545",
"<	c #444444",
"[	c #626262",
"}	c #373737",
"........................",
"++++++++++++++++++++++++",
"++++++++++++++++++++++++",
"++++++++++++++++++++++++",
"++++++++++++++++++++++++",
"+++@@@@@@@@@@@@@@@@@@+++",
"@@@@@@@@@@@@@@@@@@@@@@@@",
"@@@@@@@@.#$%%&#.@@@@@@@@",
"@@@@@@@*=------=*@@@@@@@",
";;;;;;>,--------,*;;;;;;",
";;;;;+=--%'--'%--=+;;;;;",
")));;#--%;!~~!;%--#;;)))",
")))))$--'!{]]{!'--&)))))",
")))))%---~!{{]^---=)))))",
")))))=---~!{{]^---=)))))",
")))//$--'!{]]{!'--&//)))",
"/////#--%;!~~!;%--(/////",
"/////;=--%'--'%--~;/////",
"______:,--------,<______",
"_______:=------~<_______",
"________)([%%[(;________",
"}}}__________________}}}",
"}}}}}}}}}}}}}}}}}}}}}}}}",
"}}}}}}}}}}}}}}}}}}}}}}}}",
"}}}}}}}}}}}}}}}}}}}}}}}}",
"}}}}}}}}}}}}}}}}}}}}}}}}"};
