/* XPM */
static char * hide_active_xpm[] = {
"24 26 27 1",
" 	c None",
".	c #404040",
"+	c #3F3F3F",
"@	c #3E3E3E",
"#	c #474747",
"$	c #797979",
"%	c #A6A6A6",
"&	c #B7B7B7",
"*	c #B6B6B6",
"=	c #787878",
"-	c #626262",
";	c #CCCCCC",
">	c #CECECE",
",	c #616161",
"'	c #C1C1C1",
")	c #464646",
"!	c #777777",
"~	c #B8B8B8",
"{	c #3D3D3D",
"]	c #A5A5A5",
"^	c #CBCBCB",
"/	c #767676",
"(	c #444444",
"_	c #C0C0C0",
":	c #5F5F5F",
"<	c #454545",
"[	c #3C3C3C",
"........................",
"........................",
"........................",
"++++++++++++++++++++++++",
"++++++++++++++++++++++++",
"++++++++++++++++++++++++",
"++++++++++++++++++++++++",
"@@@@@@@@#$%&*%=#@@@@@@@@",
"@@@@@@@-&;>>>>;&,@@@@@@@",
"@@@@@@-'>>>>>>>>',@@@@@@",
"@@@@@#&>>>>>>>>>>&)@@@@@",
"@@@@@$;>>>>>>>>>>;!@@@@@",
"@@@@@%>>>>>>>>>>>>%@@@@@",
"@@@@@~>>>>>>>>>>>>&@@@@@",
"@@@@@&>>>>>>>>>>>>*@@@@@",
"{{{{{]>>>>>>>>>>>>]{{{{{",
"{{{{{!;>>>>>>>>>>^/{{{{{",
"{{{{{)&>>>>>>>>>>*({{{{{",
"{{{{{{,'>>>>>>>>_:{{{{{{",
"{{{{{{{,*;>>>>^*:{{{{{{{",
"{{{{{{{{<!]&&]/({{{{{{{{",
"{{{{{{{{{{{{{{{{{{{{{{{{",
"{{{{{{{{{{{{{{{{{{{{{{{{",
"[[[[[[[[[[[[[[[[[[[[[[[[",
"[[[[[[[[[[[[[[[[[[[[[[[[",
"[[[[[[[[[[[[[[[[[[[[[[[["};
