/* XPM */
static char * hide_pressed_xpm[] = {
"24 26 33 1",
" 	c None",
".	c #3E3E3E",
"+	c #3D3D3D",
"@	c #3C3C3C",
"#	c #454545",
"$	c #747474",
"%	c #949494",
"&	c #A5A5A5",
"*	c #959595",
"=	c #737373",
"-	c #606060",
";	c #A4A4A4",
">	c #AAAAAA",
",	c #5F5F5F",
"'	c #3B3B3B",
")	c #A9A9A9",
"!	c #444444",
"~	c #A3A3A3",
"{	c #434343",
"]	c #3A3A3A",
"^	c #686868",
"/	c #555555",
"(	c #696969",
"_	c #393939",
":	c #727272",
"<	c #717171",
"[	c #424242",
"}	c #414141",
"|	c #383838",
"1	c #5D5D5D",
"2	c #5C5C5C",
"3	c #939393",
"4	c #373737",
"........................",
"++++++++++++++++++++++++",
"++++++++++++++++++++++++",
"++++++++++++++++++++++++",
"++++++++++++++++++++++++",
"+++@@@@@@@@@@@@@@@@@@+++",
"@@@@@@@@@@@@@@@@@@@@@@@@",
"@@@@@@@@#$%&&*=#@@@@@@@@",
"@@@@@@@-;>>>>>>;,@@@@@@@",
"'''''',)>>>>>>>>),''''''",
"'''''!;>>>>>>>>>>~{'''''",
"]]]''=>>>>>>>>>>>>='']]]",
"]]]]]*>>>>>>>>>>>>%]]]]]",
"]]]]]&>>^//////^>>;]]]]]",
"]]]]];>>^//////(>>~]]]]]",
"]]]__%>>>>>>>>>>>>%__]]]",
"_____:>>>>>>>>>>>><_____",
"_____[;>>>>>>>>>>~}_____",
"||||||1)>>>>>>>>)2||||||",
"|||||||1~>>>>>>~2|||||||",
"||||||||}<3&&3<}||||||||",
"444||||||||||||||||||444",
"444444444444444444444444",
"444444444444444444444444",
"444444444444444444444444",
"444444444444444444444444"};
