/* XPM */
static char * hide_prelight_xpm[] = {
"24 26 30 1",
" 	c None",
".	c #404040",
"+	c #3F3F3F",
"@	c #3E3E3E",
"#	c #474747",
"$	c #797979",
"%	c #A6A6A6",
"&	c #B7B7B7",
"*	c #B6B6B6",
"=	c #787878",
"-	c #626262",
";	c #CCCCCC",
">	c #CECECE",
",	c #616161",
"'	c #C1C1C1",
")	c #464646",
"!	c #777777",
"~	c #B8B8B8",
"{	c #7E7E7E",
"]	c #666666",
"^	c #7F7F7F",
"/	c #3D3D3D",
"(	c #A5A5A5",
"_	c #CBCBCB",
":	c #767676",
"<	c #444444",
"[	c #C0C0C0",
"}	c #5F5F5F",
"|	c #454545",
"1	c #3C3C3C",
"........................",
"........................",
"........................",
"++++++++++++++++++++++++",
"++++++++++++++++++++++++",
"++++++++++++++++++++++++",
"++++++++++++++++++++++++",
"@@@@@@@@#$%&*%=#@@@@@@@@",
"@@@@@@@-&;>>>>;&,@@@@@@@",
"@@@@@@-'>>>>>>>>',@@@@@@",
"@@@@@#&>>>>>>>>>>&)@@@@@",
"@@@@@$;>>>>>>>>>>;!@@@@@",
"@@@@@%>>>>>>>>>>>>%@@@@@",
"@@@@@~>>{]]]]]]{>>&@@@@@",
"@@@@@&>>{]]]]]]^>>*@@@@@",
"/////(>>>>>>>>>>>>(/////",
"/////!;>>>>>>>>>>_://///",
"/////)&>>>>>>>>>>*</////",
"//////,'>>>>>>>>[}//////",
"///////,*;>>>>_*}///////",
"////////|!(&&(:<////////",
"////////////////////////",
"////////////////////////",
"111111111111111111111111",
"111111111111111111111111",
"111111111111111111111111"};
