/* XPM */
static char * maximize_pressed_xpm[] = {
"24 26 34 1",
" 	c None",
".	c #3E3E3E",
"+	c #3D3D3D",
"@	c #3C3C3C",
"#	c #444444",
"$	c #707070",
"%	c #919191",
"&	c #A2A2A2",
"*	c #5C5C5C",
"=	c #A1A1A1",
"-	c #A7A7A7",
";	c #3B3B3B",
">	c #5B5B5B",
",	c #A6A6A6",
"'	c #434343",
")	c #A0A0A0",
"!	c #424242",
"~	c #989898",
"{	c #595959",
"]	c #525252",
"^	c #6F6F6F",
"/	c #3A3A3A",
"(	c #909090",
"_	c #9A9A9A",
":	c #393939",
"<	c #6E6E6E",
"[	c #414141",
"}	c #404040",
"|	c #383838",
"1	c #5A5A5A",
"2	c #6D6D6D",
"3	c #8F8F8F",
"4	c #373737",
"5	c #363636",
"........................",
"........................",
"++++++++++++++++++++++++",
"++++++++++++++++++++++++",
"++++++++++++++++++++++++",
"@@@@@@@@@@@@@@@@@@@@@@@@",
"@@@@@@@@@@@@@@@@@@@@@@@@",
"@@@@@@@@#$%&&%$#@@@@@@@@",
"@@@@@@@*=------=*@@@@@@@",
";;;;;;>,--------,*;;;;;;",
";;;;;'=----------)!;;;;;",
";;;;;$----~{]]^---^;;;;;",
"/////%---~-~{]]---(/////",
"/////=---{~-_>]---=/////",
"/////=---]{~-_>---)/////",
":::::%---]]{~-~---(:::::",
":::::^---^]]{~----<:::::",
":::::[=----------)}:::::",
"||||||1,--------,{||||||",
"|||||||1)------){|||||||",
"||||||||}23==3<}||||||||",
"||||||||||||||||||||||||",
"444444444444444444444444",
"444444444444444444444444",
"444444444444444444444444",
"555555555555555555555555"};
