/* XPM */
static char * maximize_prelight_xpm[] = {
"24 26 30 1",
" 	c None",
".	c #404040",
"+	c #3F3F3F",
"@	c #3E3E3E",
"#	c #464646",
"$	c #757575",
"%	c #A4A4A4",
"&	c #B4B4B4",
"*	c #A3A3A3",
"=	c #747474",
"-	c #5E5E5E",
";	c #C9C9C9",
">	c #CCCCCC",
",	c #BEBEBE",
"'	c #B3B3B3",
")	c #454545",
"!	c #BABABA",
"~	c #6E6E6E",
"{	c #656565",
"]	c #888888",
"^	c #737373",
"/	c #B9B9B9",
"(	c #BCBCBC",
"_	c #6F6F6F",
":	c #3D3D3D",
"<	c #A2A2A2",
"[	c #434343",
"}	c #5C5C5C",
"|	c #444444",
"1	c #3C3C3C",
"........................",
"........................",
"........................",
"++++++++++++++++++++++++",
"++++++++++++++++++++++++",
"++++++++++++++++++++++++",
"++++++++++++++++++++++++",
"@@@@@@@@#$%&&*=#@@@@@@@@",
"@@@@@@@-&;>>>>;&-@@@@@@@",
"@@@@@@-,>>>>>>>>,-@@@@@@",
"@@@@@#&>>>>>>>>>>')@@@@@",
"@@@@@$;>>>!~{{]>>;^@@@@@",
"@@@@@%>>>!>!~{{>>>*@@@@@",
"@@@@@&>>>~/>(_{>>>&@@@@@",
"@@@@@&>>>{~/>(_>>>'@@@@@",
":::::%>>>{{~!>!>>><:::::",
":::::^;>>]{{~!>>>;^:::::",
":::::)&>>>>>>>>>>'[:::::",
"::::::-,>>>>>>>>,}::::::",
":::::::-';>>>>;'}:::::::",
"::::::::|^<&&<^[::::::::",
"::::::::::::::::::::::::",
"::::::::::::::::::::::::",
"111111111111111111111111",
"111111111111111111111111",
"111111111111111111111111"};
