/* XPM */
static char * maximize_active_xpm[] = {
"24 26 23 1",
" 	c None",
".	c #404040",
"+	c #3F3F3F",
"@	c #3E3E3E",
"#	c #464646",
"$	c #757575",
"%	c #A4A4A4",
"&	c #B4B4B4",
"*	c #A3A3A3",
"=	c #747474",
"-	c #5E5E5E",
";	c #C9C9C9",
">	c #CCCCCC",
",	c #BEBEBE",
"'	c #B3B3B3",
")	c #454545",
"!	c #737373",
"~	c #3D3D3D",
"{	c #A2A2A2",
"]	c #434343",
"^	c #5C5C5C",
"/	c #444444",
"(	c #3C3C3C",
"........................",
"........................",
"........................",
"++++++++++++++++++++++++",
"++++++++++++++++++++++++",
"++++++++++++++++++++++++",
"++++++++++++++++++++++++",
"@@@@@@@@#$%&&*=#@@@@@@@@",
"@@@@@@@-&;>>>>;&-@@@@@@@",
"@@@@@@-,>>>>>>>>,-@@@@@@",
"@@@@@#&>>>>>>>>>>')@@@@@",
"@@@@@$;>>>>>>>>>>;!@@@@@",
"@@@@@%>>>>>>>>>>>>*@@@@@",
"@@@@@&>>>>>>>>>>>>&@@@@@",
"@@@@@&>>>>>>>>>>>>'@@@@@",
"~~~~~%>>>>>>>>>>>>{~~~~~",
"~~~~~!;>>>>>>>>>>;!~~~~~",
"~~~~~)&>>>>>>>>>>']~~~~~",
"~~~~~~-,>>>>>>>>,^~~~~~~",
"~~~~~~~-';>>>>;'^~~~~~~~",
"~~~~~~~~/!{&&{!]~~~~~~~~",
"~~~~~~~~~~~~~~~~~~~~~~~~",
"~~~~~~~~~~~~~~~~~~~~~~~~",
"((((((((((((((((((((((((",
"((((((((((((((((((((((((",
"(((((((((((((((((((((((("};
